<?xml version="1.0" encoding="utf-8"?><svg viewBox="0 0 24 21" xmlns="http://www.w3.org/2000/svg" xmlns:xlink="http://www.w3.org/1999/xlink"><style>:root>svg{display:none}:root>svg:target{display:block}</style><svg fill="none" viewBox="0 0 18 19" id="blue-call" xmlns="http://www.w3.org/2000/svg"><path fill-rule="evenodd" clip-rule="evenodd" d="M17 13.26c-1.25 0-2.45-.2-3.57-.57a.984.984 0 00-1.01.24l-2.2 2.2a15.045 15.045 0 01-6.59-6.59l2.2-2.21c.27-.26.35-.65.24-1a11.36 11.36 0 01-.57-3.57c0-.55-.45-1-1-1H1c-.55 0-1 .45-1 1 0 9.39 7.61 17 17 17 .55 0 1-.45 1-1v-3.5c0-.55-.45-1-1-1zM2.03 2.76h1.5c.07.88.22 1.75.46 2.59l-1.2 1.21c-.41-1.21-.67-2.48-.76-3.8zM16 16.73c-1.32-.09-2.59-.35-3.8-.75l1.2-1.2c.85.24 1.71.39 2.59.45v1.5H16z" fill="#1AA0E8"/></svg><svg fill="none" viewBox="0 0 14 14" id="call" xmlns="http://www.w3.org/2000/svg"><path fill-rule="evenodd" clip-rule="evenodd" d="M13.222 9.722a8.835 8.835 0 01-2.776-.443.765.765 0 00-.786.187l-1.711 1.71a11.702 11.702 0 01-5.126-5.125l1.711-1.719a.76.76 0 00.187-.778A8.836 8.836 0 014.278.778.78.78 0 003.5 0H.778A.78.78 0 000 .778C0 8.08 5.919 14 13.222 14a.78.78 0 00.778-.778V10.5a.78.78 0 00-.778-.778zM1.58 1.552h1.166c.055.684.171 1.36.358 2.014l-.933.94a11.657 11.657 0 01-.591-2.955zm10.866 10.866a12 12 0 01-2.956-.584l.933-.933c.662.187 1.33.303 2.015.35v1.167h.008z" fill="#2C2C2C"/></svg><svg fill="none" viewBox="0 0 24 21" id="cart" xmlns="http://www.w3.org/2000/svg"><g clip-path="url(#cclip0)" stroke="#464855" stroke-width="2" stroke-linecap="round" stroke-linejoin="round"><path d="M9 20.087c.552 0 1-.409 1-.913s-.448-.913-1-.913-1 .409-1 .913.448.913 1 .913zM20 20.087c.552 0 1-.409 1-.913s-.448-.913-1-.913-1 .409-1 .913.448.913 1 .913zM1 .913h4l2.68 12.73c.091.437.342.83.708 1.11.365.28.823.429 1.292.42h9.72c.47.009.927-.14 1.293-.42.365-.28.616-.673.707-1.11L23 5.665H6"/></g><defs><clipPath id="cclip0"><path fill="#fff" d="M0 0h24v21H0z"/></clipPath></defs></svg><svg fill="none" viewBox="0 0 15 15" id="catalog" xmlns="http://www.w3.org/2000/svg"><rect x=".75" y=".75" width="5.5" height="5.5" rx="1.25" stroke="#464855" stroke-width="1.5"/><rect x=".75" y="8.75" width="5.5" height="5.5" rx="1.25" stroke="#464855" stroke-width="1.5"/><rect x="8.75" y=".75" width="5.5" height="5.5" rx="1.25" stroke="#464855" stroke-width="1.5"/><rect x="8.75" y="8.75" width="5.5" height="5.5" rx="1.25" stroke="#464855" stroke-width="1.5"/></svg><svg fill="none" viewBox="0 0 12 12" id="clock" xmlns="http://www.w3.org/2000/svg"><path d="M7 3.25C7 3.11 6.89 3 6.75 3h-.5c-.14 0-.25.11-.25.25V6H4.25c-.14 0-.25.11-.25.25v.5c0 .14.11.25.25.25h2.5c.14 0 .25-.11.25-.25v-3.5zM10.25 6A4.254 4.254 0 016 10.25 4.254 4.254 0 011.75 6 4.254 4.254 0 016 1.75 4.254 4.254 0 0110.25 6zM12 6c0-3.313-2.688-6-6-6-3.313 0-6 2.688-6 6 0 3.313 2.688 6 6 6 3.313 0 6-2.688 6-6z" fill="#000"/></svg><svg fill="none" viewBox="0 0 12 12" id="close" xmlns="http://www.w3.org/2000/svg"><path d="M12 1.209L10.791 0 6 4.791 1.209 0 0 1.209 4.791 6 0 10.791 1.209 12 6 7.209 10.791 12 12 10.791 7.209 6 12 1.209z" fill="#fff"/></svg><svg fill="none" viewBox="0 0 15 15" id="dark-search" xmlns="http://www.w3.org/2000/svg"><path fill-rule="evenodd" clip-rule="evenodd" d="M11.906 10.528a6.353 6.353 0 001.313-3.913C13.219 2.98 10.313 0 6.656 0 3 0 0 2.981 0 6.615c0 3.633 3 6.615 6.656 6.615 1.5 0 2.907-.466 3.938-1.305l2.812 2.795c.188.187.469.28.656.28.188 0 .47-.093.657-.28a.897.897 0 000-1.304l-2.813-2.888zm-5.25.745c-2.625 0-4.781-2.05-4.781-4.658 0-2.609 2.156-4.752 4.781-4.752 2.625 0 4.782 2.143 4.782 4.752s-2.157 4.658-4.782 4.658z" fill="#464855"/></svg><svg fill="none" viewBox="0 0 10 6" id="drop" xmlns="http://www.w3.org/2000/svg"><path d="M.821.946c0 .067.033.143.084.193l3.9 3.9c.05.05.126.084.193.084a.288.288 0 00.192-.083l3.901-3.901a.288.288 0 00.084-.193.288.288 0 00-.084-.192L8.673.335A.288.288 0 008.48.252a.288.288 0 00-.192.083l-3.29 3.29-3.29-3.29a.288.288 0 00-.192-.083.272.272 0 00-.193.083L.905.754A.288.288 0 00.82.946z" fill="#000"/></svg><svg fill="none" viewBox="0 0 14 14" id="inst" xmlns="http://www.w3.org/2000/svg"><path d="M10.626 4.243a.84.84 0 100-1.68.84.84 0 000 1.68z" fill="#2C2C2C"/><path fill-rule="evenodd" clip-rule="evenodd" d="M3.5 7c0 1.93 1.57 3.5 3.5 3.5s3.5-1.57 3.5-3.5S8.93 3.5 7 3.5 3.5 5.07 3.5 7zm1.75 0c0-.965.785-1.75 1.75-1.75S8.75 6.035 8.75 7 7.965 8.75 7 8.75 5.25 7.965 5.25 7z" fill="#2C2C2C"/><path fill-rule="evenodd" clip-rule="evenodd" d="M3.5 14h7c1.799 0 3.5-1.701 3.5-3.5v-7C14 1.701 12.299 0 10.5 0h-7C1.701 0 0 1.701 0 3.5v7C0 12.299 1.701 14 3.5 14zM1.75 3.5c0-.818.932-1.75 1.75-1.75h7c.818 0 1.75.932 1.75 1.75v7c0 .818-.932 1.75-1.75 1.75h-7c-.834 0-1.75-.916-1.75-1.75v-7z" fill="#2C2C2C"/></svg><svg fill="none" viewBox="0 0 14 14" id="light-call" xmlns="http://www.w3.org/2000/svg"><path fill-rule="evenodd" clip-rule="evenodd" d="M13.222 9.722a8.835 8.835 0 01-2.776-.443.765.765 0 00-.786.187l-1.711 1.71a11.702 11.702 0 01-5.126-5.125l1.711-1.719a.76.76 0 00.187-.778A8.836 8.836 0 014.278.778.78.78 0 003.5 0H.778A.78.78 0 000 .778C0 8.08 5.919 14 13.222 14a.78.78 0 00.778-.778V10.5a.78.78 0 00-.778-.778zM1.58 1.552h1.166c.055.684.171 1.36.358 2.014l-.933.94a11.657 11.657 0 01-.591-2.955zm10.866 10.866a12 12 0 01-2.956-.584l.933-.933c.662.187 1.33.303 2.015.35v1.167h.008z" fill="#DDD"/></svg><svg fill="none" viewBox="0 0 14 15" id="light-clock" xmlns="http://www.w3.org/2000/svg"><path d="M8 4.143a.282.282 0 00-.286-.286h-.571a.282.282 0 00-.286.286v3.143h-2a.282.282 0 00-.286.285v.572c0 .16.125.286.286.286h2.857c.161 0 .286-.125.286-.286v-4zm3.714 3.143a4.862 4.862 0 01-4.857 4.857A4.862 4.862 0 012 7.286a4.862 4.862 0 014.857-4.857 4.862 4.862 0 014.857 4.857zm2 0A6.859 6.859 0 006.857.429 6.859 6.859 0 000 7.286a6.859 6.859 0 006.857 6.857 6.859 6.859 0 006.857-6.857z" fill="#DDD"/></svg><svg fill="none" viewBox="0 0 10 15" id="light-pin" xmlns="http://www.w3.org/2000/svg"><path d="M6.857 5a2.29 2.29 0 01-2.286 2.286A2.29 2.29 0 012.286 5 2.29 2.29 0 014.57 2.714 2.29 2.29 0 016.857 5zm2.286 0A4.569 4.569 0 004.57.429 4.569 4.569 0 000 5c0 .545.063 1.107.295 1.598l3.259 6.91c.178.394.589.635 1.017.635.429 0 .84-.241 1.027-.634l3.25-6.91c.232-.492.295-1.054.295-1.599z" fill="#DDD"/></svg><svg fill="none" viewBox="0 0 6 10" id="next-arr" xmlns="http://www.w3.org/2000/svg"><path d="M.186 9.828a.663.663 0 00.893 0l4.736-4.412A.564.564 0 006 5.001a.564.564 0 00-.185-.416L1.08.174a.66.66 0 00-.893 0 .556.556 0 000 .83l4.29 3.997-4.29 3.996a.566.566 0 000 .83z" fill="#333"/></svg><svg fill="none" viewBox="0 0 8 12" id="pin" xmlns="http://www.w3.org/2000/svg"><path d="M6 4c0 1.102-.898 2-2 2-1.102 0-2-.898-2-2 0-1.102.898-2 2-2 1.102 0 2 .898 2 2zm2 0c0-2.21-1.79-4-4-4S0 1.79 0 4c0 .477.055.969.258 1.398l2.851 6.047A.977.977 0 004 12c.375 0 .734-.21.898-.555l2.844-6.047C7.945 4.968 8 4.477 8 4z" fill="#000"/></svg><svg fill="none" viewBox="0 0 13 13" id="search" xmlns="http://www.w3.org/2000/svg"><path fill-rule="evenodd" clip-rule="evenodd" d="M10.319 9.124a5.506 5.506 0 001.137-3.391C11.456 2.583 8.938 0 5.77 0 2.6 0 0 2.584 0 5.733c0 3.149 2.6 5.733 5.769 5.733 1.3 0 2.518-.404 3.412-1.13l2.438 2.422a.88.88 0 00.569.242.88.88 0 00.568-.242.777.777 0 000-1.13L10.32 9.123zm-4.55.645c-2.275 0-4.144-1.777-4.144-4.037 0-2.261 1.869-4.118 4.144-4.118 2.275 0 4.143 1.857 4.143 4.118 0 2.26-1.868 4.037-4.143 4.037z" fill="#fff"/></svg><svg fill="none" viewBox="0 0 15 15" id="user" xmlns="http://www.w3.org/2000/svg"><path d="M14.412 12.241a7.039 7.039 0 00-1.608-2.252A7.531 7.531 0 0010.42 8.47l-.024-.009c1.243-.848 2.05-2.23 2.05-3.788C12.447 2.092 10.234 0 7.5 0 4.767 0 2.553 2.092 2.553 4.673c0 1.559.808 2.94 2.05 3.79l-.023.01A7.467 7.467 0 002.196 9.99a7.072 7.072 0 00-1.608 2.252A6.676 6.676 0 000 14.845a.143.143 0 00.045.11A.16.16 0 00.16 15h1.196a.155.155 0 00.16-.147c.04-1.455.658-2.817 1.751-3.85C4.398 9.935 5.9 9.347 7.5 9.347c1.6 0 3.102.588 4.233 1.656 1.093 1.033 1.711 2.395 1.751 3.85.002.083.072.147.16.147h1.196a.168.168 0 00.115-.045.148.148 0 00.045-.11 6.691 6.691 0 00-.588-2.604zM7.5 7.915a3.512 3.512 0 01-2.426-.95A3.133 3.133 0 014.07 4.673c0-.865.357-1.679 1.005-2.291a3.512 3.512 0 012.426-.95c.916 0 1.777.337 2.425.95a3.133 3.133 0 011.006 2.291c0 .865-.357 1.68-1.006 2.292-.648.612-1.51.95-2.425.95z" fill="#2C2C2C"/></svg></svg>