<svg width="14" height="14" fill="none" xmlns="http://www.w3.org/2000/svg"><path fill-rule="evenodd" clip-rule="evenodd" d="M13.222 9.722a8.835 8.835 0 01-2.776-.443.765.765 0 00-.786.187l-1.711 1.71a11.702 11.702 0 01-5.126-5.125l1.711-1.719a.76.76 0 00.187-.778A8.836 8.836 0 014.278.778.78.78 0 003.5 0H.778A.78.78 0 000 .778C0 8.08 5.919 14 13.222 14a.78.78 0 00.778-.778V10.5a.78.78 0 00-.778-.778zM1.58 1.552h1.166c.055.684.171 1.36.358 2.014l-.933.94a11.657 11.657 0 01-.591-2.955zm10.866 10.866a12 12 0 01-2.956-.584l.933-.933c.662.187 1.33.303 2.015.35v1.167h.008z" fill="#2C2C2C"/></svg>