<svg width="17" height="17" fill="none" xmlns="http://www.w3.org/2000/svg"><path d="M10.97 8.214a2.72 2.72 0 01-2.714 2.715 2.72 2.72 0 01-2.714-2.715A2.72 2.72 0 018.256 5.5a2.72 2.72 0 012.714 2.714zm1.464 0a4.172 4.172 0 00-4.178-4.177A4.172 4.172 0 004.08 8.214a4.172 4.172 0 004.177 4.178 4.172 4.172 0 004.178-4.178zm1.145-4.347a.973.973 0 00-.976-.975.973.973 0 00-.975.975c0 .54.434.976.975.976a.973.973 0 00.976-.976zM8.256 1.535c1.188 0 3.732-.096 4.803.328.371.149.647.329.933.615.286.287.467.562.615.933.424 1.071.329 3.616.329 4.803 0 1.188.095 3.732-.329 4.803a2.602 2.602 0 01-.615.933 2.604 2.604 0 01-.933.615c-1.07.424-3.615.329-4.803.329-1.187 0-3.732.095-4.803-.329a2.603 2.603 0 01-.933-.615 2.603 2.603 0 01-.615-.933c-.424-1.07-.329-3.615-.329-4.803 0-1.187-.095-3.732.33-4.803.148-.37.328-.646.614-.933.286-.286.562-.466.933-.615 1.071-.424 3.616-.328 4.803-.328zm8.143 6.68c0-1.125.01-2.238-.053-3.362-.064-1.304-.36-2.46-1.315-3.414-.954-.954-2.11-1.25-3.414-1.315C10.493.061 9.38.071 8.257.071c-1.125 0-2.238-.01-3.362.053-1.304.064-2.46.36-3.414 1.315C.527 2.393.23 3.55.166 4.853.103 5.977.113 7.09.113 8.214s-.01 2.237.053 3.361c.064 1.305.36 2.46 1.315 3.414.954.955 2.11 1.252 3.414 1.315 1.124.064 2.237.053 3.361.053s2.237.01 3.361-.053c1.304-.063 2.46-.36 3.414-1.315.954-.954 1.251-2.11 1.315-3.414.064-1.123.053-2.237.053-3.36z" fill="#fff"/></svg>