<svg width="30" height="30" fill="none" xmlns="http://www.w3.org/2000/svg"><g clip-path="url(#clip0)" fill="#fff"><path d="M15 0C6.728 0 0 6.728 0 15s6.728 15 15 15 15-6.728 15-15S23.272 0 15 0zm0 28.787C7.396 28.787 1.213 22.604 1.213 15 1.213 7.396 7.396 1.213 15 1.213c7.604 0 13.787 6.183 13.787 13.787 0 7.604-6.183 13.787-13.787 13.787z"/><path d="M17.125 10.333a.663.663 0 00-.892 0l-4.737 4.412a.564.564 0 00-.184.415c0 .155.063.303.184.416l4.737 4.412a.66.66 0 00.892 0 .557.557 0 000-.832l-4.29-3.996 4.29-3.995a.566.566 0 000-.832z"/></g><defs><clipPath id="clip0"><path fill="#fff" transform="rotate(180 15 15)" d="M0 0h30v30H0z"/></clipPath></defs></svg>