<svg width="18" height="19" viewBox="0 0 18 19" fill="none" xmlns="http://www.w3.org/2000/svg">
<path fill-rule="evenodd" clip-rule="evenodd" d="M17 13.2598C15.75 13.2598 14.55 13.0598 13.43 12.6898C13.33 12.6598 13.22 12.6398 13.12 12.6398C12.86 12.6398 12.61 12.7398 12.42 12.9298L10.22 15.1298C7.39 13.6898 5.07 11.3798 3.63 8.53977L5.83 6.32977C6.1 6.06977 6.18 5.67977 6.07 5.32977C5.7 4.20977 5.5 3.00977 5.5 1.75977C5.5 1.20977 5.05 0.759766 4.5 0.759766H1C0.45 0.759766 0 1.20977 0 1.75977C0 11.1498 7.61 18.7598 17 18.7598C17.55 18.7598 18 18.3098 18 17.7598V14.2598C18 13.7098 17.55 13.2598 17 13.2598ZM2.02979 2.75986H3.52976C3.59975 3.64005 3.74975 4.51023 3.98975 5.35041L2.78977 6.56067C2.37978 5.35041 2.11978 4.08014 2.02979 2.75986ZM15.9996 16.7305C14.6797 16.6405 13.4097 16.3805 12.1997 15.9804L13.3997 14.7801C14.2497 15.0202 15.1097 15.1702 15.9896 15.2302V16.7305H15.9996Z" fill="#1AA0E8"/>
</svg>
