<svg width="15" height="15" viewBox="0 0 15 15" fill="none" xmlns="http://www.w3.org/2000/svg">
<path fill-rule="evenodd" clip-rule="evenodd" d="M11.9062 10.528C12.75 9.40994 13.2188 8.10559 13.2188 6.61491C13.2188 2.98137 10.3125 0 6.65625 0C3 0 0 2.98137 0 6.61491C0 10.2484 3 13.2298 6.65625 13.2298C8.15625 13.2298 9.5625 12.764 10.5938 11.9255L13.4062 14.7205C13.5938 14.9068 13.875 15 14.0625 15C14.25 15 14.5312 14.9068 14.7188 14.7205C15.0938 14.3478 15.0938 13.7888 14.7188 13.4161L11.9062 10.528ZM6.65625 11.2733C4.03125 11.2733 1.875 9.2236 1.875 6.6149C1.875 4.00621 4.03125 1.86335 6.65625 1.86335C9.28125 1.86335 11.4375 4.00621 11.4375 6.6149C11.4375 9.2236 9.28125 11.2733 6.65625 11.2733Z" fill="#464855"/>
</svg>
