<svg width="10" height="6" viewBox="0 0 10 6" fill="none" xmlns="http://www.w3.org/2000/svg">
<path d="M0.821009 0.946429C0.821009 1.01339 0.854492 1.08873 0.904715 1.13895L4.80538 5.03962C4.85561 5.08984 4.93094 5.12333 4.99791 5.12333C5.06487 5.12333 5.14021 5.08984 5.19043 5.03962L9.0911 1.13895C9.14132 1.08873 9.1748 1.01339 9.1748 0.946429C9.1748 0.879464 9.14132 0.804129 9.0911 0.753906L8.67257 0.335379C8.62235 0.285156 8.54701 0.251674 8.48005 0.251674C8.41309 0.251674 8.33775 0.285156 8.28753 0.335379L4.99791 3.625L1.70829 0.335379C1.65806 0.285156 1.58273 0.251674 1.51576 0.251674C1.44043 0.251674 1.37346 0.285156 1.32324 0.335379L0.904715 0.753906C0.854492 0.804129 0.821009 0.879464 0.821009 0.946429Z" fill="black"/>
</svg>
