<svg width="14" height="14" viewBox="0 0 14 14" fill="none" xmlns="http://www.w3.org/2000/svg">
<path d="M10.6264 4.24299C11.0903 4.24299 11.4664 3.86691 11.4664 3.40299C11.4664 2.93907 11.0903 2.56299 10.6264 2.56299C10.1625 2.56299 9.78638 2.93907 9.78638 3.40299C9.78638 3.86691 10.1625 4.24299 10.6264 4.24299Z" fill="#2C2C2C"/>
<path fill-rule="evenodd" clip-rule="evenodd" d="M3.5 7C3.5 8.93025 5.06975 10.5 7 10.5C8.93025 10.5 10.5 8.93025 10.5 7C10.5 5.06975 8.93025 3.5 7 3.5C5.06975 3.5 3.5 5.06975 3.5 7ZM5.25 7C5.25 6.03487 6.03487 5.25 7 5.25C7.96513 5.25 8.75 6.03487 8.75 7C8.75 7.96513 7.96513 8.75 7 8.75C6.03487 8.75 5.25 7.96513 5.25 7Z" fill="#2C2C2C"/>
<path fill-rule="evenodd" clip-rule="evenodd" d="M3.5 14H10.5C12.299 14 14 12.299 14 10.5V3.5C14 1.701 12.299 0 10.5 0H3.5C1.701 0 0 1.701 0 3.5V10.5C0 12.299 1.701 14 3.5 14ZM1.75 3.5C1.75 2.68187 2.68187 1.75 3.5 1.75H10.5C11.3181 1.75 12.25 2.68187 12.25 3.5V10.5C12.25 11.3181 11.3181 12.25 10.5 12.25H3.5C2.66612 12.25 1.75 11.3339 1.75 10.5V3.5Z" fill="#2C2C2C"/>
</svg>
