<svg width="13" height="13" viewBox="0 0 13 13" fill="none" xmlns="http://www.w3.org/2000/svg">
<path fill-rule="evenodd" clip-rule="evenodd" d="M10.3187 9.12422C11.05 8.15528 11.4563 7.02484 11.4563 5.73292C11.4563 2.58385 8.9375 0 5.76875 0C2.6 0 0 2.58385 0 5.73292C0 8.88199 2.6 11.4658 5.76875 11.4658C7.06875 11.4658 8.2875 11.0621 9.18125 10.3354L11.6188 12.7578C11.7812 12.9193 12.025 13 12.1875 13C12.35 13 12.5938 12.9193 12.7562 12.7578C13.0813 12.4348 13.0813 11.9503 12.7562 11.6273L10.3187 9.12422ZM5.76875 9.76885C3.49375 9.76885 1.625 7.99246 1.625 5.73159C1.625 3.47072 3.49375 1.61357 5.76875 1.61357C8.04375 1.61357 9.9125 3.47072 9.9125 5.73159C9.9125 7.99246 8.04375 9.76885 5.76875 9.76885Z" fill="white"/>
</svg>
