<svg width="15" height="15" viewBox="0 0 15 15" fill="none" xmlns="http://www.w3.org/2000/svg">
<path d="M14.4115 12.2412C14.0352 11.3992 13.4893 10.6344 12.8038 9.98936C12.1205 9.34241 11.311 8.82667 10.4202 8.4705C10.4122 8.46672 10.4042 8.46486 10.3963 8.46108C11.6389 7.61307 12.4468 6.2318 12.4468 4.67338C12.4468 2.09171 10.2327 0 7.50001 0C4.76731 0 2.55322 2.09171 2.55322 4.67338C2.55322 6.2318 3.36106 7.61307 4.60375 8.46293C4.59576 8.46672 4.58779 8.46857 4.57981 8.47236C3.6862 8.82853 2.88434 9.33922 2.19618 9.99122C1.51143 10.6368 0.965478 11.4015 0.588477 12.2431C0.218111 13.0671 0.0183648 13.9505 4.98787e-05 14.8455C-0.000482509 14.8656 0.00325157 14.8856 0.0110322 14.9043C0.0188128 14.9231 0.0304825 14.9402 0.0453536 14.9546C0.0602247 14.969 0.0779964 14.9804 0.0976217 14.9882C0.117247 14.996 0.138328 15 0.159623 15H1.35643C1.44419 15 1.514 14.9341 1.516 14.853C1.55589 13.3982 2.17424 12.0358 3.26732 11.0032C4.3983 9.93466 5.90028 9.34679 7.50001 9.34679C9.09976 9.34679 10.6017 9.93466 11.7327 11.0032C12.8257 12.0358 13.4441 13.3982 13.484 14.853C13.486 14.936 13.5558 15 13.6436 15H14.8404C14.8617 15 14.8827 14.996 14.9024 14.9882C14.922 14.9804 14.9398 14.969 14.9546 14.9546C14.9695 14.9402 14.9812 14.9231 14.9889 14.9043C14.9967 14.8856 15.0005 14.8656 14.9999 14.8455C14.98 13.9448 14.7826 13.0685 14.4115 12.2412ZM7.50001 7.91462C6.58445 7.91462 5.72275 7.5773 5.07449 6.96484C4.42622 6.3524 4.06917 5.53832 4.06917 4.67338C4.06917 3.80843 4.42622 2.99435 5.07449 2.38191C5.72275 1.76948 6.58445 1.43217 7.50001 1.43217C8.41558 1.43217 9.27722 1.76948 9.92549 2.38191C10.5738 2.99435 10.9308 3.80843 10.9308 4.67338C10.9308 5.53832 10.5738 6.3524 9.92549 6.96484C9.27722 7.5773 8.41558 7.91462 7.50001 7.91462Z" fill="#2C2C2C"/>
</svg>
